<svg width="16" height="18" viewBox="0 0 16 18" fill="none" xmlns="http://www.w3.org/2000/svg">
<path d="M15.308 4.02333L14.9106 2.832C14.7592 2.37827 14.3361 2.07339 13.8579 2.07339H10.5177V0.985886C10.5177 0.442337 10.0758 0 9.53235 0H6.47348C5.93021 0 5.48815 0.442337 5.48815 0.985886V2.07339H2.14803C1.66971 2.07339 1.2466 2.37827 1.09526 2.832L0.697834 4.02333C0.607334 4.29456 0.653202 4.59489 0.820332 4.82684C0.987461 5.05879 1.25786 5.19736 1.54378 5.19736H1.9592L2.87354 16.5038C2.94152 17.3427 3.65343 18 4.49457 18H11.6968C12.5378 18 13.2499 17.3427 13.3177 16.5037L14.232 5.19736H14.4621C14.748 5.19736 15.0184 5.05879 15.1855 4.82698C15.3526 4.59503 15.3985 4.29456 15.308 4.02333ZM6.54284 1.05469H9.463V2.07339H6.54284V1.05469ZM12.2664 16.4187C12.2425 16.7141 11.9923 16.9453 11.6968 16.9453H4.49457C4.19904 16.9453 3.94883 16.7141 3.92493 16.4187L3.01732 5.19736H13.1739L12.2664 16.4187ZM1.76996 4.14267L2.09584 3.16571C2.10326 3.14319 2.12427 3.12808 2.14803 3.12808H13.8579C13.8817 3.12808 13.9026 3.14319 13.9101 3.16571L14.236 4.14267H1.76996Z" fill="#F6F7FB"/>
</svg>
